<svg width="738" height="386" fill="none" xmlns="http://www.w3.org/2000/svg"><g opacity=".3" fill="#4D4D4D"><path d="M-34.91 161.578h25.545l23.307-28.277h-25.544l-11.995 14.48-11.312 13.797zm79.307 88.066h9.385a10.317 10.317 0 009.26-5.718l2.86-5.593h-26.85l-.497 1.057a7.083 7.083 0 001.864 8.7 30.292 30.292 0 003.543 1.492l.435.062zm-37.043-.497a6.226 6.226 0 002.486.497h9.136a10.44 10.44 0 005.78-1.803 15.294 15.294 0 00-17.403 1.306zm12.866-24.923a22.856 22.856 0 01-7.956 1.554l-1.492-.373-3.605 7.147 3.108 2.051h1.056l3.357-1.305c4.226-1.678 8.763-5.158 12.43-4.599 3.667.559 4.226 3.045 4.6 6.215h1.056l12.803-25.17 4.724-9.261H23.513l-8.888 17.526 5.408 5.345c.077.287.139.577.186.87zM6.733 238.271a35.016 35.016 0 00-1.305 4.35c1.802-.622 4.413-.684 5.22-1.927a3.416 3.416 0 000-2.423H6.734zm38.845-44.996h2.983l-2.983-3.605-20.324-24.61H-.29l23.245 28.215h22.623zM-.601 226.649l2.175 1.616 4.91-9.758c.373-1.491.932-2.983 1.367-4.412 0 0 .56-.373 1.057-.435l6.775-13.362h-5.408l-3.79 3.729-8.143-1.989 1.243-1.74h-10.752l-12.43 24.859-4.973 9.82h7.77c.483-1.618.774-3.286.87-4.972.559-5.904 13.673-7.52 19.329-3.356zm46.179 7.955h21.878l17.402-34.306H58.071l-12.43 24.859-.995 2.051h1.305c-2.051 2.424-2.983 3.916-3.667 4.661l-1.616 3.108 4.91-.373zM10.275 86.938a27.407 27.407 0 013.357-7.21 41.117 41.117 0 012.92-2.796h-6.215a7.024 7.024 0 00-6.215 10.254l.56 1.119h26.85l-2.922-5.656a10.254 10.254 0 00-7.645-5.53 21.128 21.128 0 01-2.486 5.655c-1.988 2.175-5.718 2.672-8.204 4.164zm3.667 106.337L-9.365 165.06h-25.544l11.312 13.734 11.995 14.481h25.544zm11.996-43.94c.621-1.119 3.17-1.119 4.848-1.616.373 1.616 1.305 3.356.932 4.724-.373 1.367-.435 1.367-.622 2.051l14.482-17.589 2.983-3.604H22.706L-.601 161.578h21.442a1.554 1.554 0 010-.559 93.27 93.27 0 015.097-11.684zm-49.536-57.487h-4.91l4.91 9.757 12.493 24.673h26.788L-1.72 91.848h-21.878zm29.647 0l17.464 34.43h26.788l-4.724-9.26-12.679-25.17H6.048zm38.348-14.916a7.022 7.022 0 00-6.215 10.254l.56 1.119h26.787l-2.86-5.718a10.38 10.38 0 00-9.26-5.655h-9.136.124zm1.181 14.916h-4.91l4.91 9.757 12.492 24.673h26.85l-17.465-34.43H45.578zM99.34 240.011l.869-1.74H73.422l-.56 1.118a7.086 7.086 0 003.543 9.695c1.554-11.186 9.012-1.988 13.363-3.107 1.243-.373 2.797.684 4.413 1.678a10.251 10.251 0 003.17-3.729l1.553-3.045h-.435l.87-.87zm-39.53-78.433l23.308-28.277H57.573l-11.995 14.48-11.312 13.797h25.545zm32.382 31.697h25.545l-2.921-3.605-20.386-24.61H68.885l23.307 28.215zm-9.074 0l-23.12-28.215H34.452l9.012 10.876c.615.211 1.217.46 1.802.745v1.678l.31.435 11.996 14.481h25.545zm31.697 16.283l4.662-9.26H92.689L75.224 234.79h26.788l12.803-25.232zM100.272 88.305l-2.921-5.656a10.193 10.193 0 00-9.199-5.717h-9.136A7.024 7.024 0 0072.8 87.186l.56 1.119h26.911zm19.205 37.973H92.689l-17.465-34.43h26.85l12.741 25.17 4.662 9.26z"/><path d="M99.898 118.821l-5.034-3.046-2.921 5.532c1.616.559 3.48 1.864 4.723 1.429 1.243-.435 2.176-2.548 3.232-3.915zm66.69 125.105l2.859-5.655h-26.85l-.559 1.118a7.027 7.027 0 00.229 6.872 7.032 7.032 0 005.986 3.383h9.074a10.322 10.322 0 009.261-5.718zm6.215-117.648h15.849l-4.662-9.26-12.43-24.86h-26.787l17.402 34.431h.746l-.373-3.356 10.255 3.045zm-55.066 7.023H92.192l-23.369 28.277H94.43l20.386-24.673 2.921-3.604zm5.033-56.369h-9.136a7.022 7.022 0 00-6.215 10.254l.559 1.119h26.601l-2.859-5.718a10.256 10.256 0 00-3.232-3.667 46.364 46.364 0 01-5.842-1.988h.124zm28.714 77.748l9.261-7.085a52.876 52.876 0 0017.402-3.667l5.843-7.085 1.74-2.175v-1.367h-12.99l-4.475 5.655c-1.491-1.429-3.853-2.672-4.35-4.412v-1.243h-2.3l-23.307 28.277h25.296-1.243c-3.854-.683-7.272-4.536-10.877-6.898zm-21.131 87.631a96.78 96.78 0 01-8.329 6.214 7.14 7.14 0 01-2.734 1.368h3.48a10.314 10.314 0 009.199-5.718l2.61-5.842h-6.215l1.616.87a3.607 3.607 0 01.373 3.108zm-15.538-77.251h-11.312l11.312 13.734 11.933 14.481h25.607l-23.369-28.215h-14.171zm39.218 35.238h-26.725l-12.431 24.859-5.158 9.447h4.786c2.423-1.554 3.729-4.972 5.655-7.582a17.698 17.698 0 015.159-5.158c1.305-.808 3.418-.373 5.221-.498-.435 1.43-.373 3.543-1.305 4.164-5.097 3.294-6.837 6.215-5.097 9.074h12.431l17.464-34.306zm5.407-24.301a53.092 53.092 0 014.662-8.328h1.74l-2.3-2.797h-25.544l23.307 28.216h7.023a6.21 6.21 0 012.3-1.989c1.491-.808 4.288.994 6.215 1.678l-.497.497h10.566l-2.922-3.605-15.6-18.644c0 2.672-.683 5.345-1.056 7.955l-7.894-2.983zm-14.668-91.11a3.545 3.545 0 013.481.932v2.486h21.194l-2.859-5.656a10.325 10.325 0 00-9.261-5.717h-9.136a7.028 7.028 0 00-5.986 3.382 7.022 7.022 0 00-.229 6.872l.621 1.119h1.181a3.541 3.541 0 01.994-3.418zm-28.217 159.225c-1.554-7.085-6.215-1.927-9.633-1.989a6.704 6.704 0 001.656 5.278 6.706 6.706 0 005.056 2.242h5.47c-.995-.062-1.43-1.553-2.549-5.531zm60.661-155.807h26.85l-2.3-4.475c-.932 1.865-1.554 3.356-1.989 3.294a71.465 71.465 0 01-8.887-2.237c.621-1.119 1.243-3.17 1.864-3.17 2.746.007 5.488.214 8.204.622a10.442 10.442 0 00-9.012-5.407h-9.136a7.022 7.022 0 00-6.215 10.254l.621 1.119zm-50.468 44.996l-11.933 14.294-.684.808h19.516c.373 0 .746.497 2.175 1.554-1.429 1.553-2.859 4.35-4.164 4.35-6.961-.311-13.922-.994-20.821-1.74l-7.334 9.011h25.482l23.307-28.277h-25.544zm9.882-41.453h-26.788l4.973 9.757 12.492 24.673h26.788l-17.465-34.43zm86.64 108.45h-26.787l-12.493 24.673-4.972 9.819h26.788l17.464-34.492zm29.896-111.993h20.075l-2.859-5.718a10.508 10.508 0 00-9.261-5.655h-9.136a7.029 7.029 0 00-5.986 3.382 7.022 7.022 0 00-.229 6.872v.435l1.367.684h6.029zm-49.163 150.028h-26.787l-.559 1.057a7.018 7.018 0 002.779 9.345 7.017 7.017 0 003.436.909h9.074a10.314 10.314 0 009.198-5.718l2.859-5.593zm22.499 11.311a10.322 10.322 0 009.261-5.718l2.859-5.655h-26.85l-.497 1.118a7.027 7.027 0 00.229 6.872 7.032 7.032 0 005.986 3.383h9.012zm-35.426-69.979l5.034-5.718c3.916 0 7.023 0 10.006.683l-7.955-9.57h-25.482l11.311 13.61 11.934 14.481h25.668l-6.215-7.582a107.035 107.035 0 01-17.651-2.548 25.555 25.555 0 01-6.65-3.356zm13.3-60.534l6.215 3.418c0 1.305 0 3.045-.621 3.418h-.56 13.86l-17.464-34.306h-26.788l4.972 9.757 12.431 24.425a12.44 12.44 0 007.955-6.712zm10.317-36.233c7.52.932 15.165 1.74 22.685 2.921l-1.616-3.17a10.311 10.311 0 00-9.26-5.717h-9.074a7.028 7.028 0 00-5.986 3.382 7.011 7.011 0 00-1.013 3.406 7.013 7.013 0 00.783 3.466l.56 1.119h13.362l-11.311-4.288c.248-.373.621-1.181.87-1.119zm37.603 51.211v-.808h-21.443l-9.26 11.249 1.864 1.553-3.915.871-11.996 14.604h25.234l20.386-24.859.684-.808a21.848 21.848 0 00-1.554-1.802zm-63.644 66.189h-26.788L144.4 234.79h26.787l12.803-25.232 4.662-9.26zm59.043-86.325a28.505 28.505 0 001.989-2.797c0 1.057.56 2.051.746 3.108-.05 1.647.203 3.29.746 4.847a50.526 50.526 0 005.159 6.215l-1.057.622h2.61l-4.723-9.261-11.56-22.87-1.554-.373-5.221-1.927h-21.194l17.403 34.431h17.962c-1.368-3.294-2.673-6.215-3.916-9.82-.186-.124 1.74-1.243 2.61-2.175zm-63.394 37.6a4.903 4.903 0 00-4.412 1.864 9.816 9.816 0 01-7.459 8.08h25.483l8.701-10.503a31.078 31.078 0 01-22.313.559zm3.356-8.204c1.696.296 3.332.863 4.848 1.678 4.786 2.548 5.842.746 4.599-4.164 0-.87 2.114-2.362 3.294-3.605 2.984 7.707 9.075 4.475 14.233 4.413l6.961-8.39h-24.239l-2.548 1.491-7.148 8.577zm63.644 11.56c6.215-4.537 7.955-7.955 6.215-12.43l-4.413 5.345-11.374 13.797h3.543c.062-3.045 2.983-4.475 6.029-6.712zm-24.551 25.729c-1.429.808-2.796 1.927-4.226 2.921l8.018 9.696h25.544l-2.921-3.605-20.386-24.859h-25.544l10.068 12.429 2.797.808c2.238.622 4.413 1.74 6.65 2.61z"/><path d="M253.165 133.301h-.87v.559a6.227 6.227 0 012.486.684l1.057-1.243h-2.673zm47.05-22.995c-.622-1.989-5.097-3.045-8.018-3.978a4.859 4.859 0 00-2.113 0l6.215 12.43h.497a9.633 9.633 0 003.419-8.452zm-33.438 54.754c-2.051 4.101 0 19.763 3.294 20.695 1.616.435 5.594-1.678 5.78-3.045.37-2.199.578-4.421.622-6.65l-9.074-11h-.622zm52.456 28.215h4.848a25.169 25.169 0 00-4.848 0zm-36.732-9.944a8.159 8.159 0 00-1.616 1.865c-1.492 2.61-4.475 5.096-5.221 8.079h15.041l-8.204-9.944zm-5.345 16.966a71.47 71.47 0 00.373 9.447c0 .87 2.673 1.927 4.04 1.865 1.368-.063 2.362-1.554 3.543-2.424a23.228 23.228 0 01-1.74 4.226 8.958 8.958 0 01-3.357 3.729 8.022 8.022 0 01-6.215.621c-.994-.435-.994-3.418-.994-5.282 0-3.605.435-7.21.684-10.814l-4.475 1.429c.418-.974.711-1.997.87-3.045h-4.662l-12.43 24.859-4.972 9.82h27.16l15.911-31.199a7.081 7.081 0 01-1.678-3.045l-12.058-.187zm40.896-15.847l-2.797-3.356a35.833 35.833 0 00-6.215 0c-2.299 0-4.723-1.678-6.836-1.306-2.114.373-5.656 1.989-6.216 3.667-.559 1.678-.621 2.921-.932 4.413l4.661 5.655h17.341a7.311 7.311 0 010-2.983c.519-1.995.852-4.034.994-6.09zm-20.075-87.941c0-.746 2.734-1.243 4.164-1.865l1.305-2.983h-20.634l7.147 14.232a11.244 11.244 0 008.018-9.384zm22.313 39.775l1.989-2.983h-3.418a8.205 8.205 0 001.429 2.983zm-59.232 29.583s-.808-.559-1.74-.807h-4.537c-2.735 1.429-5.097 6.214-8.329 0h-4.599l11.312 13.61 2.797 3.356 1.926-1.429c8.702-3.294 3.232-9.633 3.17-14.73zm44.875-77.562h1.864l-2.859-5.656a10.313 10.313 0 00-9.198-5.717h-9.137a7.022 7.022 0 00-6.215 10.254l.559 1.119h24.178l.932-1.927c-.062.622-.062 1.305-.124 1.927zm-2.3 12.803c3.543 3.853 4.723 9.757 13.3 8.017a3.039 3.039 0 011.492 0l-8.826-17.464h-3.915c0 1.554 0 3.045-.435 4.6a27.682 27.682 0 01-1.616 4.847zm17.962 19.825c-.746 1.803-1.616 3.543-2.238 5.345h7.583l-4.537-9.198a11.862 11.862 0 01-.808 3.853zm-53.326 33.312c0 1.181 1.243 2.299 2.3 3.48l4.039-4.972c-5.655-7.644.871-13.299 3.854-19.452h-8.204c-5.159 6.588-1.927 14.294-1.989 20.944zm11.435 10.814v4.226l6.216 7.706c3.853 0 8.95.995 11.001-4.288 1.616-4.226 4.164-4.91 7.893-2.486l1.989 1.181-5.221-6.215-21.878-.124zM309.6 234.79h-26.85l17.465-34.492h26.787l-4.661 9.26L309.6 234.79z"/><path d="M312.769 206.948c3.108-.497 6.216-.87 9.323-1.492.808 0 1.43-1.243 3.294-2.858a52.398 52.398 0 00-10.566-.808c-.808.124-1.305 3.356-2.051 5.158zm-29.522-73.647a8.692 8.692 0 00.932 8.079l6.526-8.079h-7.458zm36.919 6.215v-2.797c-1.741-1.119-4.848-2.3-4.973-3.418H299.78l-11.374 13.735v2.113a51.569 51.569 0 016.899 0c.228 4.14.228 8.289 0 12.429h6.65l18.211-22.062zM250.12 95.514l3.045 6.215 12.431 24.86h20.075l2.237-9.012-12.865-25.916h-21.318l1.243.684c-2.3 1.553-3.543 3.231-4.848 3.17zm11.25 42.324c2.672.497 5.034-.684 6.899-4.537h-3.17l-3.729 4.537zm58.919 38.47l2.859-1.678a38.77 38.77 0 01-2.113-7.768 4.053 4.053 0 01.435-1.802h-10.503l9.322 11.248zm-49.907 67.618l2.797-5.593h-26.726l-.559 1.057a7.023 7.023 0 006.215 10.254h9.012a10.442 10.442 0 009.261-5.718zm50.653-166.994a7.022 7.022 0 00-6.215 10.254l.559 1.119h27.036l-2.859-5.718a10.499 10.499 0 00-9.26-5.655h-9.261zm-63.208 123.366h-26.788l-17.465 34.492h26.85l12.741-25.232 4.662-9.26zm28.776 49.346h9.137a10.32 10.32 0 009.198-5.718l2.859-5.655H281.01l-.56 1.118a7.018 7.018 0 006.153 10.255z"/><path d="M292.135 161.144a9.015 9.015 0 00-3.916-11.747c-1.08.45-2.119.99-3.107 1.616l-4.6 5.594a16.367 16.367 0 00-.87 4.972h12.431s0-.311.062-.435zm23.928-34.866c.411-1.718.702-3.462.87-5.221 0-1.926-1.367-3.915-2.113-5.904a25.326 25.326 0 00-6.215 3.232c-.994.932 0 3.294-.994 4.661a3.6 3.6 0 01-3.419 1.119c-2.362-1.492-4.413-2.113-5.904-1.367l1.74 3.48h16.035zm52.457 108.326h-16.408l17.527-34.493h21.753a30.445 30.445 0 00-1.989 7.831 4.784 4.784 0 001.554 3.045l-2.735 5.345c-3.356-2.797-8.453-1.678-12.43-2.859-.87-.31-2.238.808-3.357 1.243a13.045 13.045 0 003.357 1.678c3.729.87 7.458 1.616 11.187 2.362l-4.351 8.701a43.506 43.506 0 00-14.108 7.147z"/><path d="M361.311 229.756c3.791-1.678 7.458-3.48 11.311-5.345-.746-.497-1.429-1.305-1.74-1.18-3.543 1.491-7.023 3.107-10.566 4.661l.995 1.864zm-5.968-109.692a181.926 181.926 0 00-1.926 6.215h8.204l-9.137-18.086a15.723 15.723 0 002.859 11.871zm9.821 119.139l.622-.932h-15.601l-.559 1.118a7.027 7.027 0 00.229 6.872 7.02 7.02 0 005.986 3.383h9.075c0-4.848-5.035-7.396-7.148-11.311 2.548.31 6.775 1.616 7.396.87zm13.611-4.599v-.498c-1.74 0-3.418 0-5.097.498h5.097zm-17.154-34.306h-26.788l-12.492 24.673-4.973 9.819h26.788l17.465-34.492zM350.185 88.305h26.788l-2.859-5.656a10.323 10.323 0 00-9.199-5.717h-9.136a7.029 7.029 0 00-5.986 3.382 7.022 7.022 0 00-.229 6.872l.621 1.119zm-10.504 155.621l2.797-5.593H315.69l-.497 1.057a7.023 7.023 0 006.215 10.254h8.888a10.44 10.44 0 009.385-5.718zm27.907 5.345a10.324 10.324 0 006.215-5.345l3.17-5.655h-7.21a25.821 25.821 0 00-1.429 3.977 33.162 33.162 0 00-.746 7.023zm23.927.373h7.956a10.315 10.315 0 009.26-5.718l2.797-5.593h-10.13c-3.357 2.175-6.216 4.723-10.007 6.712a31.495 31.495 0 00-2.797 2.237 35.056 35.056 0 001.803-3.791c.435-1.74.745-3.418 1.118-5.158h-6.774l-.497 1.057a7.012 7.012 0 00.229 6.871 7.017 7.017 0 005.986 3.383h1.056zm-48.353-109.32a345.599 345.599 0 013.232-7.023h-12.058l-8.639 10.441a11.879 11.879 0 002.486 3.232c0 .31-.311 1.367-.497 2.05-1.554-.621-3.605-.932-5.035-1.553l-.31.31-11.374 13.797h11.995a8.556 8.556 0 00-.497-1.678c-.559-1.305-1.243-2.672-1.865-3.977.653-.223 1.317-.41 1.989-.559a22.5 22.5 0 011.865 4.785 2.798 2.798 0 01-.559 1.429h8.204c.621-.932 1.491-1.802 2.175-2.734v2.734h2.486l7.831-9.508a25.606 25.606 0 00-1.429-11.746zm8.95 2.051l7.458-9.074h-8.95a29.42 29.42 0 01-1.492 3.169c-2.548 4.91-3.232 7.21 2.984 5.905zm27.284-9.074h15.103l-2.983 3.604-20.386 24.86h-25.545l21.691-26.6c2.487 1.057 6.775.684 7.769 2.921a29.01 29.01 0 004.351-4.785z"/><path d="M369.887 158.595l-3.978-2.672-1.615 1.926c1.491.622 2.983 1.306 4.474 1.803.249.373.746-.684 1.119-1.057zm-39.343-40.831l-6.215-12.43h.435a16.933 16.933 0 002.238-2.797h-2.424a4.604 4.604 0 00-.995 1.181l-1.243-2.424-4.972-9.757h26.85l4.35 8.639c1.492 7.582-3.853 12.802-4.723 19.39l4.351-4.723c1.243 1.927 3.915 4.35 3.418 5.78-.497 1.429-1.43 3.542-2.175 5.345h-7.397a7.796 7.796 0 00-1.553-1.181c-2.362-1.305-5.221-4.102-7.024-3.543-1.802.56-.621-9.571-2.921-3.48z"/><path d="M335.207 98.25h2.051l4.288-.995c-1-.227-2.02-.352-3.045-.373-1.124.39-2.224.847-3.294 1.367zm38.658 74.205a8.516 8.516 0 012.796-.87l14.855 17.961 2.983 3.605h-25.607l-11.808-14.481a17.647 17.647 0 0011.995-6.215c.746 0 3.48.808 4.786 0z"/><path d="M374.61 190.043l-2.796-1.057c0 .746-.746 1.803-.436 2.176a7.824 7.824 0 002.487 1.615c.186-.745.435-1.678.745-2.734zm-35.24-15.973l-9.447 4.786 2.61 3.356a20.454 20.454 0 00-3.605 1.243l-1.678 1.429 3.605 4.413c.746 0 1.74-1.554 2.673-2.362.683 1.057 1.926 2.486 1.616 2.859a8.523 8.523 0 01-2.114 2.113l1.368 1.616h25.482l-12.43-15.289-3.605-.932-4.475-3.232zm25.172-75.2c1.243 0 3.481 2.424 3.232 3.046-1.492 3.853-3.356 7.644-5.221 11.435l4.973 9.758c.126-.964.313-1.919.559-2.859 0-.373 2.61 0 4.04 0 1.056-1.741 2.237-3.356 3.107-5.159 1.741-3.791 3.357-7.644 5.035-11.497-.87 3.48-3.17 7.395-2.238 10.254a40 40 0 012.362 12.43h15.849l-1.678-3.356-1.989 1.305c-.87-1.118-2.611-2.424-2.424-3.356.186-.932.684-3.107.994-4.661l-12.43-24.362h-26.601l3.17 6.215c.683.372 1.367.87 2.113 1.367a35.054 35.054 0 017.147-.56zm21.38-16.158h3.729a17.838 17.838 0 01-4.537 1.553 3.918 3.918 0 01-1.616 0 6.222 6.222 0 00.746 3.108l.559 1.118h26.788l-2.859-5.717a10.38 10.38 0 00-9.261-5.656h-9.136a6.958 6.958 0 00-6.837 6.215h2.362l.062-.621zm-11.684 86.139l-3.108-3.791h-25.234l7.334 9.26c6.588-1.368 12.99-4.289 19.578-5.283l1.43-.186zm10.069-3.791h-4.102l1.553 1.864a8.156 8.156 0 002.549-1.864zm12.367-5.719c4.04-.621 8.142-.994 12.431-1.554l5.283-6.214a19.337 19.337 0 01-6.215-2.735c-3.17-3.045-4.475-3.294-5.159 1.554 0 .745-2.735 1.118-4.164 1.678 0-1.492 0-3.854.621-4.351a39.6 39.6 0 019.82-4.661s1.865 3.916 3.108 5.904a11.363 11.363 0 002.548 2.3l14.109-17.961h-25.545l-11.995 14.294-11.312 13.797h6.588c1.243-1.367 6.526-1.367 9.882-2.051z"/><path d="M356.4 100.611l5.034 9.695a13.92 13.92 0 00-4.35-10.69l-.684.995zm-16.719 73.149c1.693.567 3.444.943 5.221 1.119l-8.08-9.819h-3.356c-1.243 4.599-.559 8.141 6.215 8.7zm-16.222 1.057c0 4.164 1.803 6.215 6.216 3.791.559-4.475.994-9.012 1.616-13.548h-7.769l-.063 9.757zm70.294 45.803c3.667 1.491 7.397 3.045 11.188 4.288 1.367.435 3.294-.684 4.972-1.057-2.424-5.469 3.108-12.429-2.983-17.153-.622-3.231 3.667-4.226 5.407-6.215h-8.328l-10.256 20.137zm1.244-116.529v4.537l8.949 17.712h26.85l-17.402-34.679h-26.788l4.91 9.757 2.051 3.978c0-.684 0-1.429.497-2.175.498-.746.933.87.933.87zm30.33 48.165a20.285 20.285 0 00-.87 5.594 20.978 20.978 0 005.283-3.667 16.165 16.165 0 001.305-6.215c1.405.146 2.821.146 4.226 0 1.741-10.503 5.035 1.989 7.272-.559.373-.436 1.678 0 2.548 0a10.998 10.998 0 00-1.491 3.418 5.586 5.586 0 00.808 3.915h1.429l14.855-18.023 2.983-3.605h-4.662v.435a1.062 1.062 0 010-.435h-11.808c0 1.368.497 2.797.745 4.475-1.678-.435-2.983-.497-3.045-.808a34.759 34.759 0 01-.435-3.667h-6.215l-9.075 11.001v2.858a28.213 28.213 0 00-3.853 5.283zm-.373 97.388a7.017 7.017 0 01-5.986-3.383 7.026 7.026 0 01-.23-6.872l.56-1.118h26.849l-2.859 5.655a10.256 10.256 0 01-9.198 5.718h-9.136z"/><path d="M421.784 240.322a51.893 51.893 0 005.345 3.356s.87-.622 1.616-1.243l-6.899-3.605c0 .559-.311 1.367-.062 1.492zm6.65-47.855l-.311.808h.933l-.622-.808zm-2.424-22.747l-6.836.683 6.836 8.266c1.181-1.678 0-6.215 0-8.949zm-12.928 18.21a7.46 7.46 0 008.515-3.667l-9.509-11.808c-.995.621-1.803 1.18-2.3.87-6.712-3.667-12.057 0-18.272 1.678a7.273 7.273 0 01-3.046 0l3.046 3.729 11.995 14.48c1.802-4.102 3.729-6.774 9.571-5.282zm42.14 60.16a6.837 6.837 0 004.289 1.554h9.136a10.32 10.32 0 009.261-5.718l2.859-5.593h-16.781a3.56 3.56 0 01-1.554.622 5.284 5.284 0 01-2.486-.622h-6.216l-.497 1.057a7.08 7.08 0 001.181 8.141l.684.373.124.186z"/><path d="M410.534 189.795a33.65 33.65 0 00-4.661 3.48h5.469c-.248-1.181-.497-2.175-.808-3.48zm3.108 42.323a4.847 4.847 0 01-2.424 2.3c-.649.088-1.292.213-1.927.373h4.04l4.972-9.758c-3.232 1.367-9.136.622-4.661 7.085zm16.098-50.03a9.954 9.954 0 007.847-1.063 9.93 9.93 0 004.583-6.457h4.662c4.226 2.05 3.107 4.971 1.492 8.141-1.616 3.17-1.989 5.283-2.984 7.893l3.854 2.362h10.255c-.622-1.989-1.865-3.978-.497-5.718l-18.646-22.498h-3.978v3.543l-6.588 13.797zm24.239-93.783h26.788l-2.859-5.718a10.38 10.38 0 00-9.261-5.655h-9.136a7.028 7.028 0 00-5.986 3.382 7.023 7.023 0 00-.23 6.872l.684 1.119zm8.577 32.317l-1.865-3.604-12.43-24.86h-26.85l17.465 34.431h21.007c-1.119-3.854-.186-5.594 2.673-5.967zM436.7 204.089c0 1.243 1.243 3.045 2.051 3.294a11.81 11.81 0 0014.606-7.085h-14.73l-1.927 3.791zm-31.449 25.916c.435-.808-2.672-4.661-4.475-4.91a9.445 9.445 0 00-10.752 7.893c-.062.391-.062.79 0 1.181h-3.17l-.311.559h14.979a14.537 14.537 0 003.729-4.723zm38.473-36.73h5.034l-3.419-2.175-1.615 2.175zM419.36 88.305h26.85l-2.921-5.656a10.26 10.26 0 00-9.199-5.717h-9.136a7.029 7.029 0 00-5.986 3.382 7.022 7.022 0 00-.229 6.872l.621 1.119zm-.932 132.875h2.051l4.226-8.328a59.392 59.392 0 00-8.639 3.728c-1.802.746-2.113 4.91 2.362 4.6z"/><path d="M438.628 193.275c4.537-5.159 10.13-10.068 8.328-18.086-5.283 3.108-7.956 9.944-14.917 10.69l6.216 7.396h.373zm39.715-1.43c-1.305 1.119-3.916.684-6.215.622l.621.808h24.177v-.435c0-.125-2.859-1.927-4.288-3.046a12.36 12.36 0 01-1.74-2.175l1.74-1.056-4.289-5.159a94.011 94.011 0 01-10.006 10.441zm42.076-31.385l-.808 1.118h-1.056l11.373-13.983 11.934-14.294h25.544l-2.859 3.542h-.311c0 .373-.373.808-.497 1.243l-19.64 23.741h-23.804a6.811 6.811 0 01.124-1.367z"/><path d="M537.262 155.115a14.65 14.65 0 001.616 3.48c.497-1.491.932-2.983 1.988-6.215-.621 0-1.988-.559-2.859 0-.87.56-.932 1.803-.745 2.735zm-34.742 24.177c6.215-3.978 4.848 3.666 7.396 5.344a83.85 83.85 0 0111.312 8.639h11.622l-2.921-3.605-13.984-16.842c-.435 1.057-.808 2.051-1.305 3.17-1.616-1.865-2.984-2.921-2.797-3.294a24.822 24.822 0 011.74-2.673l-4.04-4.971h-25.544l19.018 23.057c2.548-2.486 4.475-5.531-.497-8.825zm-29.151-11.747a5.218 5.218 0 011.679-2.3h-25.669l11.312 13.424 4.474 5.407a25.41 25.41 0 008.204-16.531zm7.024 5.656c-1.057 2.424-2.175 4.848-3.108 7.271-.497 1.368-.683 2.797-1.056 4.164 1.429 0 3.356 0 4.164-.808 1.74-1.926 3.356-4.039 4.972-6.215l-9.509-11.373c0 .746 0 1.492-.373 2.238-1.057 4.288.932 5.158 4.91 4.723zm7.583-86.015l.56 1.119h26.849l-2.921-5.656a10.192 10.192 0 00-9.198-5.717h-9.137a7.02 7.02 0 00-6.937 6.804 7.033 7.033 0 00.784 3.45zm40.212 46.115l1.492 3.853-20.138 24.424h-25.606l23.555-28.277h20.697z"/><path d="M516.317 146.477c-3.294 0-6.216-.994-6.526 0a45.943 45.943 0 00-3.419 7.334c.933 0 2.3.994 2.611.683 2.362-2.237 4.723-4.847 7.334-8.017zm-24.487-10.504c.621-.808 1.181-1.802 1.802-2.672h-7.52c.062 2.548 2.734 2.61 5.718 2.672z"/><path d="M492.079 136.16l-6.713 3.791c-1.367.808-2.797 1.492-4.226 2.237a25.87 25.87 0 002.299-4.785c0-.994-.559-2.175-.87-3.294-1.056.373-2.548.373-3.232 1.057a40.08 40.08 0 00-6.215 7.644c-.87 1.491 0 3.853 0 5.842l-3.667-3.791a25.824 25.824 0 00-2.237 2.299c-2.859 3.667-5.532 7.52-8.639 10.939-1.119 1.242-4.227 2.672-4.91 2.113a6.661 6.661 0 00-1.803-.995l-1.927 2.362h24.986l23.244-28.216-1.429.808-4.661 1.989zm-18.895-9.882h26.849l-17.465-34.43h-26.787l4.91 9.757 12.493 24.673zm56.744 52.391l11.934 14.481h24.86l-1.553-1.616a25.787 25.787 0 01-5.283-7.395l-15.787-19.204h-24.861v.435l10.69 13.299zm1.243 27.844c0 .621-2.734 2.299-3.294 1.988a18.651 18.651 0 01-4.599-4.226 42.789 42.789 0 01-2.859-3.977 24.857 24.857 0 00-4.537 5.531c-.373.87 2.3 2.672 2.3 4.102a39.243 39.243 0 01-1.678 7.831 38.495 38.495 0 00-1.679-6.215c-1.615-3.356-3.604-6.215-5.469-9.82-4.537 3.916-2.921 7.769-.746 12.43a10.379 10.379 0 01-.621 7.147 42.122 42.122 0 01-3.854 7.085c-1.181-1.864-2.299-3.729-3.48-5.531l-5.159 1.926-5.158 9.82h26.787l12.803-24.86 4.662-9.26h-5.594l.373.311a9.13 9.13 0 011.802 5.718zm-82.351 12.989c-6.215 3.977-11.312 8.887-17.154 13.113-1.181.808-3.17.56-4.848.808 1.057-.87 2.051-1.864 3.17-2.672 7.272-5.407 4.288-12.43 3.294-18.645a1.872 1.872 0 000-.684l-12.12 23.182h26.788l12.43-25.233 4.724-9.26h-3.854v.684c-5.78 5.283-5.531 14.108-12.43 18.707zm16.594-93.224l-.994-2.05c-.373.683-.746 1.367-1.181 2.05h2.175zm7.273 7.023l-5.656 6.836a28.908 28.908 0 009.82-6.836h-4.164zm-7.148 93.472l3.357-7.272c1.802 2.176 3.667 4.351 5.531 6.215l8.95.933c1.616-1.243 3.854-2.176 4.724-3.792.412-.711.869-1.396 1.367-2.05l10.504-20.758h-10.38c-.497 1.119-.994 2.237-1.554 3.294-.559 1.056-.807 0-1.18.435l-9.51 5.096v-1.119l7.583-7.706h-11.623l-12.43 24.859-4.972 9.82h26.725l-9.633-8.639-7.459.684z"/><path d="M503.886 208.75v-1.367l-6.215 12.802a44.992 44.992 0 013.046 2.114 478.584 478.584 0 003.169-13.549zm-15.04 31.323l-.683-.622a7.024 7.024 0 006.215 10.193h8.888a10.198 10.198 0 009.198-5.718l2.859-5.655h-21.38.435c-1.989.87-4.848 2.548-5.532 1.802zm90.867-79.737l19.391-23.431.497-.683-1.802-.808c-2.983-1.243 0 8.328-5.221 2.983a12.428 12.428 0 01-2.362-5.096h-13.735l-19.267 23.616v.933-.435l-3.419 4.163h17.465l8.018-3.728c.186.87.31 1.678.435 2.486zm8.576.559v.683h13.674v-12.056c0-2.611.373-3.978.559-6.215l-3.481 4.164-10.752 13.424zm3.978 61.278c-1.616 3.418-6.961 6.215-4.724 10.379l5.532-11-.808.621zm5.035 6.215l.435-.435v6.775h11.684v-1.243c-.497-2.983-7.272-7.769 1.927-9.136-1.367-3.543-2.611-7.085 3.045-8.266-.994-1.74-1.491-4.164-3.045-5.096a23.756 23.756 0 00-3.978-1.989l-8.017 15.91-2.051 3.48zm-3.978-63.328l8.639 5.096v-5.096h-8.639zm-21.07 60.719c2.611-.808 6.775-2.548 7.831-1.554 5.656 5.718 8.204-.746 11.934-2.424a7.64 7.64 0 010-2.424 26.109 26.109 0 012.486-3.418c.137.527.303 1.045.497 1.554l4.102-7.769 1.119-2.299-7.583 1.74c-10.379 2.175-10.504 2.051-8.266-8.577h-5.469a23.133 23.133 0 01-2.735 6.215 4.535 4.535 0 01-2.921 1.243l-8.267 16.345v4.662c2.611-1.368 4.662-2.549 7.272-3.294zm25.047-38.284l-5.656 5.78h9.882v-.87l-2.237-2.735-1.989-2.175z"/><path d="M584.622 200.422c2.175 3.48 5.221 7.023 8.266 1.74.359-.642.754-1.265 1.181-1.864h-9.323l-.124.124zm12.244-.124c.323.627.613 1.27.87 1.926a11.438 11.438 0 003.294 3.419l2.114-4.164v-1.181h-6.278zM577.661 91.661h-6.526a48.727 48.727 0 002.797 6.215 16.759 16.759 0 003.854 4.785c.435.373 2.796 0 2.921-.745a40.35 40.35 0 00.808-7.334l-3.854-2.92zm-17.838 112.925c-.435 2.797-2.423 5.531-2.423 8.266 0 2.734-.311 5.22 2.734 5.345l9.012-17.899h-9.758c.414 1.389.562 2.844.435 4.288zm7.832-35.798a6.204 6.204 0 01-.808-3.728h-13.674l10.255 12.802c.31-.035.623-.035.933 0 7.644-1.305 7.644-3.045 3.294-9.074zm-20.572-86.201a10.384 10.384 0 00-9.199-5.655h-9.136a7.029 7.029 0 00-5.986 3.382 7.022 7.022 0 00-.229 6.872l.497.995h25.296a7.63 7.63 0 001.181-.746l-2.424-4.848zm26.477 35.177a5.7 5.7 0 01-.995 0l4.413 8.7h4.164a9.076 9.076 0 01-7.582-8.7zm-.125-30.516c7.707-.435 10.814 0 3.543-6.774a3.224 3.224 0 01-.995-2.859 9.698 9.698 0 00-3.543-.683h-9.012c.161.655.285 1.32.373 1.988.684 5.842 2.113 8.763 9.634 8.328zm20.697 159.786a9.522 9.522 0 01-.995.683 6.215 6.215 0 003.792 1.803 4.783 4.783 0 01-1.554-2.735c-.435.249-.87.249-1.243.249zm-64.203-8.702h-2.113a14.91 14.91 0 01-1.678 2.486 7.709 7.709 0 01-4.351 1.616 6.961 6.961 0 006.899 7.085h9.199a10.314 10.314 0 009.198-5.718l2.238-4.35-.995-1.243-18.397.124zm2.921-105.031h-.497l-.622 1.181 1.119-1.181zm43.444 41.143c0 .746 1.989 2.672 3.232 2.796 1.243.125 3.356-1.615 3.356-2.548a41.068 41.068 0 000-4.785l-3.915-4.723a92.185 92.185 0 00-2.673 9.26zm-7.769-73.646a11.24 11.24 0 00-3.108 2.61l2.486 4.91a20.91 20.91 0 005.594-3.108c.435-1.305.808-2.548 1.243-3.791-2.113-.249-4.661-1.367-6.215-.621zm-20.448-2.922l1.243-.435a37.283 37.283 0 004.412-1.865l-1.988-3.915h-2.797a21.739 21.739 0 01-1.927 1.678l-12.803 2.921-5.035 1.181a30.038 30.038 0 014.537-3.17l6.526-2.61h-15.289l4.972 9.757 3.916 7.769h.746-.622l8.391 16.594h16.594a27.995 27.995 0 01-2.424-2.859 23.66 23.66 0 01-1.243-2.113 38.45 38.45 0 01-5.283-2.735 16.382 16.382 0 01-2.983-3.542c1.554 0 3.667-.373 4.599.435a25.366 25.366 0 013.916 5.531c1.241.147 2.467.396 3.667.746a38.917 38.917 0 014.537 2.299c-.746.622-1.554 1.554-2.3 2.238h7.769l-6.899-13.549c-5.096-4.164-8.204-10.814-14.232-14.356zm43.009 145.677l3.418-1.118c-.808-1.243-1.678-2.486-2.486-3.791l-.373.745a7.086 7.086 0 00-.559 4.164z"/><path d="M528.872 227.021l-1.056 2.113a10.258 10.258 0 011.056 5.656h22.872l6.215-11.871c-1.926-1.367-6.215-1.491-8.141-3.169-1.927-1.678-5.221 6.215-6.216 0-.435-3.045-.994-8.639 5.905-7.52.87 0 2.61-1.305 2.859-2.238.621-2.361 0-5.282 1.119-7.271a7.824 7.824 0 012.548-2.362h-13.549l-10.131 19.391s0 .621.435.994c1.616 5.034 1.678 5.531-3.916 6.277zm52.83 16.905l2.859-5.655h-26.85l-.559 1.118a7.758 7.758 0 00-.684 4.04 24.878 24.878 0 0011.006 4.563 24.87 24.87 0 0011.866-1.083 11.126 11.126 0 002.362-2.983zm4.599-9.322v-.435c-2.673 0-5.656.497-6.215-3.729 0-.621-3.481-1.74-4.662-1.181a10.565 10.565 0 01-13.114-.621l-3.045 6.215 27.036-.249zM534.59 126.278h-26.788l-17.464-34.43h26.849l12.679 25.17 4.724 9.26z"/><path d="M507.491 102.786l-1.056-1.616a10.137 10.137 0 00-3.729 1.181 49.084 49.084 0 00-4.413 5.034c2.11-.261 4.19-.719 6.215-1.367 1.243-.56 1.989-1.927 2.983-3.232zm54.819 146.733l-1.865-.559a4.653 4.653 0 001.865.559zm70.418-167.367a17.9 17.9 0 00-5.656-2.424 6.843 6.843 0 00-.684 7.458l.56 1.119h7.707a4.663 4.663 0 00-1.927-6.153zm8.701 1.118a6.776 6.776 0 004.413.312c.932 0 2.237-2.486 1.927-2.921a18.647 18.647 0 01-1.306-2.486 10.81 10.81 0 00-4.847-1.243h-4.537a8.948 8.948 0 014.35 6.339zm-40.71 37.104l-1.74.311-9.385-5.656-.746-6.215-8.142 2.424a54.751 54.751 0 004.102 4.351 15.59 15.59 0 003.357 1.74c3.231 1.864 6.215 3.791 9.571 5.718.311.745.435 1.988.994 2.237l3.108 1.243h1.802l-2.921-6.153zm1.616-38.159c4.848 1.43 10.131 1.43 14.917 2.859.311 0-.994-2.486-.994-2.486a10.388 10.388 0 00-9.323-5.656h-9.137a6.652 6.652 0 00-5.22 2.424 89.782 89.782 0 009.757 2.859zm29.46 9.446h-3.169l.994 2.051.559-.497 1.616-1.554zm-26.477 84.398c0-.435-2.051-.808-2.113-.746-.87 1.803-1.678 3.605-2.486 5.407l3.48 4.227a9.39 9.39 0 001.119-8.888zm37.541 73.46a9.004 9.004 0 010-6.587c.373-1.243-1.243-3.046-2.175-4.661h-.498a24.143 24.143 0 00-2.424 5.158 52.96 52.96 0 00-.745 6.215h4.848l.994-.125zm-2.549-66.436l-4.661-1.927 2.921 3.543 1.74-1.616zm-22.063-28.092v.87l.497-.559-.497-.311zm-15.539-46.239l24.861 12.429 10.442 4.972-5.594-11c-2.983-2.61-6.215-5.158-9.261-7.582a12.799 12.799 0 00-8.079-2.424 10.877 10.877 0 01-11.809-4.91c-.56-.932-3.543-1.305-5.656-.932l1.181 2.3 3.915 7.147zm23.991 114.603a6.706 6.706 0 00-2.796-3.481c-2.549-1.243-7.148 6.215-6.216 10.006a43.649 43.649 0 001.119 4.91h2.362l5.531-11.435zm-.31 16.034a3.073 3.073 0 00-.311.808h1.43c1.802-.311 2.734-.87 3.045-1.616h-3.667l-.497.808zm3.356-4.786l-.56-.932-.497.932h1.057zm-30.641 3.73h-.808c.435 1.927 3.045 3.045 4.102 4.723a14.28 14.28 0 011.18 4.661c-1.367 0-2.921 1.368-4.35 1.927h7.707a10.072 10.072 0 005.345-1.491c-.808-3.294-1.554-6.215-2.238-9.82h-10.938zm19.391-35.425a6.839 6.839 0 002.175-2.61h-9.074l-.87 1.678a9.194 9.194 0 007.769.932zm14.668-13.86l-2.3-2.735v1.616c0 .56 1.554 1.181 2.3 1.119zm18.832-55.747h-6.215c1.43 1.181 2.797 2.299 4.102 2.175 1.305-.124 1.243-.808 2.113-2.175zM623.53 187.93c.932-1.181 1.926-2.424 3.542-4.599l-7.707-3.977c-.497.994-1.74 2.548-1.429 2.921a69.419 69.419 0 005.594 5.655zm49.41 12.368h-11.001a58.914 58.914 0 00-6.215 6.215 11.813 11.813 0 000 9.384c2.735.622 5.532 1.057 8.328 1.43l4.227-7.583 4.661-9.446zm3.294 49.346a10.26 10.26 0 009.199-5.718l.621-1.18a20.696 20.696 0 00-1.616-4.413h-13.3a13.053 13.053 0 002.672 8.701 12.09 12.09 0 002.797 2.051h-4.35l-4.227.311 8.204.248zm8.391-39.092c.497 3.667 0 7.893 6.215 6.899a77.998 77.998 0 00-3.107-10.938c-.684-1.678-3.17-2.611-4.848-3.916l-2.486-1.989-8.95 17.713h4.661c3.232 0 7.645-1.243 3.17-6.215-.311-.311 1.181-2.548 2.238-3.418 1.056-.87 3.045 1.056 3.107 1.864zm52.829-132.875v-.745h-2.237a2.909 2.909 0 002.237.745zm-53.699 154.565c2.113-2.237 7.707-6.215 2.797-9.819-6.215-4.413-5.283 4.847-9.136 5.779-.746 0-1.243 1.181-1.803 1.803a15.843 15.843 0 00-3.48 4.785h10.193c0-.683.373-1.429 1.429-2.548zm22.064.124a37.837 37.837 0 00-2.921 2.424h4.537c-.56-.808-1.057-1.616-1.616-2.424zm-8.08-48.6c-6.774 0-4.35 6.215-5.78 9.509h7.707a17.097 17.097 0 000-7.023l-2.238-2.734.311.248zm.186-11.311v.622l3.978 4.847a39.626 39.626 0 00-1.74-4.847c0-.622-1.43-.622-2.238-.622zm11.312 65.816h-7.956c-.87 2.858-1.429 5.779-2.237 8.638 0 .56-.373 1.243-.56 1.927a6.915 6.915 0 003.232.808h4.662a14.736 14.736 0 002.859-11.373zm-38.969-46.115c-.03.185-.03.374 0 .56l-.622.559h1.492l-.87-1.119zm66.005 57.488h1.181v-11.311h-4.537l-3.481 4.972a6.897 6.897 0 006.837 6.339zm-67.497-102.048c1.927-.56 3.418-2.486 6.526-4.91l-2.051-.808-4.661 5.718h.186zm68.678 87.008v-3.232l-2.175 3.232h2.175zm-65.135-63.827a25.369 25.369 0 015.221-2.549 27.026 27.026 0 016.215 0c-.808-.994-1.554-2.237-2.3-3.293h-18.583c-1.305.745-1.927 4.101-1.865 5.22l.497.622c3.605 1.678 7.272 5.034 10.815 0zm8.701 18.644a5.035 5.035 0 01-2.486-8.825c3.356-4.04 6.837-1.305 10.069.932.779.35 1.639.479 2.486.373a34.192 34.192 0 003.543-.311c0-.746-.311-1.616-.498-2.424l-2.921-3.48c-4.537-2.797-9.695-.932-14.854 0a6.21 6.21 0 00-4.013 1.853 6.209 6.209 0 00-1.767 4.051l8.887 10.752c.622-.808.995-2.051 1.554-2.921z"/></g></svg>